<mxfile host="app.diagrams.net" modified="2022-04-20T08:24:02.680Z" agent="5.0 (Macintosh; Intel Mac OS X 10_15_7) AppleWebKit/537.36 (KHTML, like Gecko) Chrome/100.0.4896.88 Safari/537.36" etag="6g2s8-gEyUH7xD4fMkzC" version="17.4.5" type="github" pages="2">
  <diagram id="8jfNpNAZliBH_JcL0tr9" name="Page-1">
    <mxGraphModel dx="1513" dy="618" grid="0" gridSize="10" guides="1" tooltips="1" connect="1" arrows="1" fold="1" page="0" pageScale="1" pageWidth="827" pageHeight="1169" math="0" shadow="0">
      <root>
        <mxCell id="0" />
        <mxCell id="1" parent="0" />
        <mxCell id="HmQmNMEGDG_JzxM044ja-3" value="" style="edgeStyle=orthogonalEdgeStyle;rounded=0;orthogonalLoop=1;jettySize=auto;html=1;" parent="1" source="HmQmNMEGDG_JzxM044ja-1" target="HmQmNMEGDG_JzxM044ja-2" edge="1">
          <mxGeometry relative="1" as="geometry" />
        </mxCell>
        <mxCell id="HmQmNMEGDG_JzxM044ja-1" value="API调用" style="rounded=1;whiteSpace=wrap;html=1;fillColor=#f5f5f5;fontColor=#333333;strokeColor=#666666;" parent="1" vertex="1">
          <mxGeometry x="9" y="64" width="109" height="60" as="geometry" />
        </mxCell>
        <mxCell id="HmQmNMEGDG_JzxM044ja-9" value="" style="edgeStyle=orthogonalEdgeStyle;rounded=0;orthogonalLoop=1;jettySize=auto;html=1;fontColor=#FFFFFF;" parent="1" source="HmQmNMEGDG_JzxM044ja-2" target="HmQmNMEGDG_JzxM044ja-8" edge="1">
          <mxGeometry relative="1" as="geometry" />
        </mxCell>
        <mxCell id="HmQmNMEGDG_JzxM044ja-15" value="" style="edgeStyle=orthogonalEdgeStyle;rounded=0;orthogonalLoop=1;jettySize=auto;html=1;fontColor=#FFFFFF;" parent="1" source="HmQmNMEGDG_JzxM044ja-2" target="HmQmNMEGDG_JzxM044ja-14" edge="1">
          <mxGeometry relative="1" as="geometry" />
        </mxCell>
        <mxCell id="HmQmNMEGDG_JzxM044ja-2" value="策略执行" style="whiteSpace=wrap;html=1;rounded=1;fillColor=#dae8fc;strokeColor=#6c8ebf;" parent="1" vertex="1">
          <mxGeometry x="156" y="64" width="120" height="60" as="geometry" />
        </mxCell>
        <mxCell id="HmQmNMEGDG_JzxM044ja-11" value="" style="edgeStyle=orthogonalEdgeStyle;rounded=0;orthogonalLoop=1;jettySize=auto;html=1;fontColor=#FFFFFF;" parent="1" source="HmQmNMEGDG_JzxM044ja-8" target="HmQmNMEGDG_JzxM044ja-10" edge="1">
          <mxGeometry relative="1" as="geometry" />
        </mxCell>
        <mxCell id="HmQmNMEGDG_JzxM044ja-8" value="填充结果到response" style="whiteSpace=wrap;html=1;rounded=1;fillColor=#d5e8d4;strokeColor=#82b366;" parent="1" vertex="1">
          <mxGeometry x="336" y="64" width="120" height="60" as="geometry" />
        </mxCell>
        <mxCell id="HmQmNMEGDG_JzxM044ja-13" value="" style="edgeStyle=orthogonalEdgeStyle;rounded=0;orthogonalLoop=1;jettySize=auto;html=1;fontColor=#FFFFFF;" parent="1" source="HmQmNMEGDG_JzxM044ja-10" target="HmQmNMEGDG_JzxM044ja-12" edge="1">
          <mxGeometry relative="1" as="geometry" />
        </mxCell>
        <mxCell id="HmQmNMEGDG_JzxM044ja-10" value="填充规则详情到response" style="whiteSpace=wrap;html=1;rounded=1;fillColor=#ffe6cc;strokeColor=#d79b00;" parent="1" vertex="1">
          <mxGeometry x="506" y="65" width="151" height="59" as="geometry" />
        </mxCell>
        <mxCell id="HmQmNMEGDG_JzxM044ja-12" value="kafka发送消息" style="whiteSpace=wrap;html=1;rounded=1;fillColor=#fff2cc;strokeColor=#d6b656;" parent="1" vertex="1">
          <mxGeometry x="708" y="64" width="120" height="60" as="geometry" />
        </mxCell>
        <mxCell id="HmQmNMEGDG_JzxM044ja-18" value="" style="edgeStyle=orthogonalEdgeStyle;rounded=0;orthogonalLoop=1;jettySize=auto;html=1;fontColor=#FFFFFF;" parent="1" source="HmQmNMEGDG_JzxM044ja-14" target="HmQmNMEGDG_JzxM044ja-17" edge="1">
          <mxGeometry relative="1" as="geometry" />
        </mxCell>
        <mxCell id="HmQmNMEGDG_JzxM044ja-14" value="子策略" style="whiteSpace=wrap;html=1;fillColor=#f8cecc;strokeColor=#b85450;rounded=1;" parent="1" vertex="1">
          <mxGeometry x="156" y="156" width="120" height="60" as="geometry" />
        </mxCell>
        <mxCell id="HmQmNMEGDG_JzxM044ja-16" style="edgeStyle=orthogonalEdgeStyle;rounded=0;orthogonalLoop=1;jettySize=auto;html=1;exitX=0.5;exitY=1;exitDx=0;exitDy=0;fontColor=#FFFFFF;" parent="1" source="HmQmNMEGDG_JzxM044ja-14" target="HmQmNMEGDG_JzxM044ja-14" edge="1">
          <mxGeometry relative="1" as="geometry" />
        </mxCell>
        <mxCell id="HmQmNMEGDG_JzxM044ja-17" value="规则执行" style="whiteSpace=wrap;html=1;fillColor=#e1d5e7;strokeColor=#9673a6;rounded=1;" parent="1" vertex="1">
          <mxGeometry x="156" y="248" width="120" height="60" as="geometry" />
        </mxCell>
        <mxCell id="HmQmNMEGDG_JzxM044ja-28" value="" style="edgeStyle=orthogonalEdgeStyle;rounded=0;orthogonalLoop=1;jettySize=auto;html=1;fontFamily=Helvetica;fontColor=#FFFFFF;" parent="1" source="HmQmNMEGDG_JzxM044ja-25" target="HmQmNMEGDG_JzxM044ja-27" edge="1">
          <mxGeometry relative="1" as="geometry" />
        </mxCell>
        <mxCell id="HmQmNMEGDG_JzxM044ja-25" value="&lt;p class=&quot;p1&quot; style=&quot;margin: 0px ; font-stretch: normal ; font-size: 14px ; line-height: normal ; font-family: &amp;#34;helvetica neue&amp;#34; ; color: rgb(15 , 23 , 33)&quot;&gt;&lt;/p&gt;&lt;span style=&quot;color: rgb(15 , 23 , 33) ; font-family: &amp;#34;helvetica neue&amp;#34; ; font-size: 14px&quot;&gt;EngineExecuteStep&lt;br style=&quot;color: rgb(15 , 23 , 33) ; font-family: &amp;#34;helvetica neue&amp;#34; ; font-size: 14px ; font-style: normal ; font-weight: 400 ; letter-spacing: normal ; text-align: center ; text-indent: 0px ; text-transform: none ; word-spacing: 0px ; background-color: rgb(255 , 255 , 255)&quot;&gt;&lt;/span&gt;" style="rounded=1;whiteSpace=wrap;html=1;fontFamily=Helvetica;strokeColor=#6c8ebf;fillColor=#dae8fc;" parent="1" vertex="1">
          <mxGeometry x="-17" y="410" width="142" height="59" as="geometry" />
        </mxCell>
        <mxCell id="HmQmNMEGDG_JzxM044ja-35" value="" style="edgeStyle=orthogonalEdgeStyle;rounded=0;orthogonalLoop=1;jettySize=auto;html=1;fontFamily=Helvetica;fontColor=#FFFFFF;" parent="1" source="HmQmNMEGDG_JzxM044ja-27" target="HmQmNMEGDG_JzxM044ja-34" edge="1">
          <mxGeometry relative="1" as="geometry" />
        </mxCell>
        <mxCell id="HmQmNMEGDG_JzxM044ja-27" value="ParallelEngine" style="whiteSpace=wrap;html=1;fillColor=#d5e8d4;strokeColor=#82b366;rounded=1;" parent="1" vertex="1">
          <mxGeometry x="190" y="410" width="140" height="60" as="geometry" />
        </mxCell>
        <mxCell id="HmQmNMEGDG_JzxM044ja-30" value="策略执行的Step" style="text;html=1;strokeColor=#6c8ebf;fillColor=#dae8fc;align=center;verticalAlign=middle;whiteSpace=wrap;rounded=0;fontFamily=Helvetica;" parent="1" vertex="1">
          <mxGeometry x="-17" y="368" width="140" height="33" as="geometry" />
        </mxCell>
        <mxCell id="HmQmNMEGDG_JzxM044ja-31" value="子策略并行执行引擎" style="text;html=1;strokeColor=#82b366;fillColor=#d5e8d4;align=center;verticalAlign=middle;whiteSpace=wrap;rounded=0;fontFamily=Helvetica;" parent="1" vertex="1">
          <mxGeometry x="190" y="368" width="140" height="33" as="geometry" />
        </mxCell>
        <mxCell id="HmQmNMEGDG_JzxM044ja-38" value="" style="edgeStyle=orthogonalEdgeStyle;rounded=0;orthogonalLoop=1;jettySize=auto;html=1;fontFamily=Helvetica;fontColor=#FFFFFF;" parent="1" source="HmQmNMEGDG_JzxM044ja-34" target="HmQmNMEGDG_JzxM044ja-37" edge="1">
          <mxGeometry relative="1" as="geometry" />
        </mxCell>
        <mxCell id="HmQmNMEGDG_JzxM044ja-34" value="&lt;p class=&quot;p1&quot; style=&quot;margin: 0px ; font-stretch: normal ; font-size: 14px ; line-height: normal ; font-family: &amp;#34;helvetica neue&amp;#34; ; color: rgb(15 , 23 , 33)&quot;&gt;SubPolicyExecuteAsyncTask&lt;/p&gt;" style="whiteSpace=wrap;html=1;fillColor=#ffe6cc;strokeColor=#d79b00;rounded=1;" parent="1" vertex="1">
          <mxGeometry x="382" y="411" width="203" height="59" as="geometry" />
        </mxCell>
        <mxCell id="HmQmNMEGDG_JzxM044ja-36" value="子策略异步执行任务" style="text;html=1;strokeColor=#d79b00;fillColor=#ffe6cc;align=center;verticalAlign=middle;whiteSpace=wrap;rounded=0;fontFamily=Helvetica;" parent="1" vertex="1">
          <mxGeometry x="383" y="367" width="200" height="34" as="geometry" />
        </mxCell>
        <mxCell id="HmQmNMEGDG_JzxM044ja-46" style="edgeStyle=orthogonalEdgeStyle;rounded=0;orthogonalLoop=1;jettySize=auto;html=1;entryX=0;entryY=0.5;entryDx=0;entryDy=0;fontFamily=Helvetica;fontColor=#FFFFFF;exitX=1;exitY=0.5;exitDx=0;exitDy=0;" parent="1" source="HmQmNMEGDG_JzxM044ja-37" target="HmQmNMEGDG_JzxM044ja-40" edge="1">
          <mxGeometry relative="1" as="geometry">
            <mxPoint x="817" y="292" as="sourcePoint" />
          </mxGeometry>
        </mxCell>
        <mxCell id="HmQmNMEGDG_JzxM044ja-49" style="edgeStyle=orthogonalEdgeStyle;rounded=0;orthogonalLoop=1;jettySize=auto;html=1;exitX=1;exitY=0.5;exitDx=0;exitDy=0;entryX=0;entryY=0.5;entryDx=0;entryDy=0;fontFamily=Helvetica;fontColor=#FFFFFF;startArrow=none;startFill=0;endArrow=classic;endFill=1;" parent="1" source="HmQmNMEGDG_JzxM044ja-37" target="HmQmNMEGDG_JzxM044ja-42" edge="1">
          <mxGeometry relative="1" as="geometry" />
        </mxCell>
        <mxCell id="HmQmNMEGDG_JzxM044ja-50" style="edgeStyle=orthogonalEdgeStyle;rounded=0;orthogonalLoop=1;jettySize=auto;html=1;exitX=1;exitY=0.5;exitDx=0;exitDy=0;entryX=0;entryY=0.5;entryDx=0;entryDy=0;fontFamily=Helvetica;fontColor=#FFFFFF;startArrow=none;startFill=0;endArrow=classic;endFill=1;" parent="1" source="HmQmNMEGDG_JzxM044ja-37" target="HmQmNMEGDG_JzxM044ja-44" edge="1">
          <mxGeometry relative="1" as="geometry" />
        </mxCell>
        <mxCell id="HmQmNMEGDG_JzxM044ja-37" value="&lt;span style=&quot;color: rgb(15 , 23 , 33) ; font-family: &amp;#34;helvetica neue&amp;#34; ; font-size: 14px&quot;&gt;SubPolicyManager&lt;/span&gt;" style="whiteSpace=wrap;html=1;fillColor=#f8cecc;strokeColor=#b85450;rounded=1;" parent="1" vertex="1">
          <mxGeometry x="646" y="410.25" width="138.5" height="60.5" as="geometry" />
        </mxCell>
        <mxCell id="HmQmNMEGDG_JzxM044ja-39" value="子策略执行" style="text;html=1;strokeColor=#b85450;fillColor=#f8cecc;align=center;verticalAlign=middle;whiteSpace=wrap;rounded=0;fontFamily=Helvetica;" parent="1" vertex="1">
          <mxGeometry x="644" y="361" width="138" height="34" as="geometry" />
        </mxCell>
        <mxCell id="HmQmNMEGDG_JzxM044ja-57" style="edgeStyle=orthogonalEdgeStyle;rounded=0;orthogonalLoop=1;jettySize=auto;html=1;exitX=1;exitY=0.5;exitDx=0;exitDy=0;fontFamily=Helvetica;fontColor=#FFFFFF;startArrow=none;startFill=0;endArrow=classic;endFill=1;" parent="1" source="HmQmNMEGDG_JzxM044ja-40" target="HmQmNMEGDG_JzxM044ja-56" edge="1">
          <mxGeometry relative="1" as="geometry" />
        </mxCell>
        <mxCell id="HmQmNMEGDG_JzxM044ja-40" value="&lt;p class=&quot;p1&quot; style=&quot;margin: 0px ; font-stretch: normal ; font-size: 14px ; line-height: normal ; font-family: &amp;#34;helvetica neue&amp;#34; ; color: rgb(15 , 23 , 33)&quot;&gt;FirstMatchPolicyModeExecuter&lt;/p&gt;" style="whiteSpace=wrap;html=1;fillColor=#e1d5e7;strokeColor=#9673a6;rounded=1;" parent="1" vertex="1">
          <mxGeometry x="861.5" y="357.5" width="220" height="41" as="geometry" />
        </mxCell>
        <mxCell id="HmQmNMEGDG_JzxM044ja-59" style="edgeStyle=orthogonalEdgeStyle;rounded=0;orthogonalLoop=1;jettySize=auto;html=1;exitX=1;exitY=0.5;exitDx=0;exitDy=0;fontFamily=Helvetica;fontColor=#FFFFFF;startArrow=none;startFill=0;endArrow=classic;endFill=1;" parent="1" source="HmQmNMEGDG_JzxM044ja-42" target="HmQmNMEGDG_JzxM044ja-56" edge="1">
          <mxGeometry relative="1" as="geometry" />
        </mxCell>
        <mxCell id="HmQmNMEGDG_JzxM044ja-42" value="&lt;p class=&quot;p1&quot; style=&quot;margin: 0px ; font-stretch: normal ; font-size: 14px ; line-height: normal ; font-family: &amp;#34;helvetica neue&amp;#34; ; color: rgb(15 , 23 , 33)&quot;&gt;WeightedPolicyModeExecuter&lt;/p&gt;" style="whiteSpace=wrap;html=1;fillColor=#e1d5e7;strokeColor=#9673a6;rounded=1;" parent="1" vertex="1">
          <mxGeometry x="863" y="419.63" width="220" height="41.75" as="geometry" />
        </mxCell>
        <mxCell id="HmQmNMEGDG_JzxM044ja-58" style="edgeStyle=orthogonalEdgeStyle;rounded=0;orthogonalLoop=1;jettySize=auto;html=1;exitX=1;exitY=0.5;exitDx=0;exitDy=0;entryX=0.5;entryY=1;entryDx=0;entryDy=0;fontFamily=Helvetica;fontColor=#FFFFFF;startArrow=none;startFill=0;endArrow=classic;endFill=1;" parent="1" source="HmQmNMEGDG_JzxM044ja-44" target="HmQmNMEGDG_JzxM044ja-56" edge="1">
          <mxGeometry relative="1" as="geometry" />
        </mxCell>
        <mxCell id="HmQmNMEGDG_JzxM044ja-44" value="&lt;p class=&quot;p1&quot; style=&quot;margin: 0px ; font-stretch: normal ; font-size: 14px ; line-height: normal ; font-family: &amp;#34;helvetica neue&amp;#34; ; color: rgb(15 , 23 , 33)&quot;&gt;WorstMatchModeExecuter&lt;/p&gt;" style="whiteSpace=wrap;html=1;fillColor=#e1d5e7;strokeColor=#9673a6;rounded=1;" parent="1" vertex="1">
          <mxGeometry x="861.5" y="482" width="223.5" height="39" as="geometry" />
        </mxCell>
        <mxCell id="HmQmNMEGDG_JzxM044ja-61" value="" style="edgeStyle=orthogonalEdgeStyle;rounded=0;orthogonalLoop=1;jettySize=auto;html=1;fontFamily=Helvetica;fontColor=#FFFFFF;startArrow=none;startFill=0;endArrow=classic;endFill=1;" parent="1" source="HmQmNMEGDG_JzxM044ja-56" target="HmQmNMEGDG_JzxM044ja-60" edge="1">
          <mxGeometry relative="1" as="geometry" />
        </mxCell>
        <mxCell id="HmQmNMEGDG_JzxM044ja-56" value="&lt;p class=&quot;p1&quot; style=&quot;margin: 0px ; font-stretch: normal ; font-size: 14px ; line-height: normal ; font-family: &amp;#34;helvetica neue&amp;#34; ; color: rgb(15 , 23 , 33)&quot;&gt;AbstractPolicyModeExecuter&lt;/p&gt;" style="rounded=1;whiteSpace=wrap;html=1;fontFamily=Helvetica;strokeColor=#10739e;fillColor=#b1ddf0;" parent="1" vertex="1">
          <mxGeometry x="1177" y="413" width="222" height="54" as="geometry" />
        </mxCell>
        <mxCell id="HmQmNMEGDG_JzxM044ja-60" value="RuleManger" style="whiteSpace=wrap;html=1;fillColor=#d0cee2;strokeColor=#56517e;rounded=1;" parent="1" vertex="1">
          <mxGeometry x="1449" y="410" width="120" height="60" as="geometry" />
        </mxCell>
        <mxCell id="HmQmNMEGDG_JzxM044ja-62" value="规则执行" style="text;html=1;strokeColor=#56517e;fillColor=#d0cee2;align=center;verticalAlign=middle;whiteSpace=wrap;rounded=0;fontFamily=Helvetica;" parent="1" vertex="1">
          <mxGeometry x="1449" y="353" width="115" height="43" as="geometry" />
        </mxCell>
        <mxCell id="BPZOe5Mcxmma2KJgpljq-3" value="" style="edgeStyle=orthogonalEdgeStyle;rounded=0;orthogonalLoop=1;jettySize=auto;html=1;" edge="1" parent="1" source="BPZOe5Mcxmma2KJgpljq-1" target="BPZOe5Mcxmma2KJgpljq-2">
          <mxGeometry relative="1" as="geometry" />
        </mxCell>
        <mxCell id="BPZOe5Mcxmma2KJgpljq-1" value="GeneralOutputStep" style="rounded=1;whiteSpace=wrap;html=1;fillColor=#ffe6cc;strokeColor=#d79b00;" vertex="1" parent="1">
          <mxGeometry x="88" y="599" width="120" height="60" as="geometry" />
        </mxCell>
        <mxCell id="BPZOe5Mcxmma2KJgpljq-2" value="&lt;span&gt;CsGeneralOutputExt&lt;/span&gt;" style="whiteSpace=wrap;html=1;fillColor=#fff2cc;strokeColor=#d6b656;rounded=1;" vertex="1" parent="1">
          <mxGeometry x="288" y="599" width="120" height="60" as="geometry" />
        </mxCell>
        <mxCell id="BPZOe5Mcxmma2KJgpljq-6" value="" style="edgeStyle=orthogonalEdgeStyle;rounded=0;orthogonalLoop=1;jettySize=auto;html=1;" edge="1" parent="1" source="BPZOe5Mcxmma2KJgpljq-4" target="BPZOe5Mcxmma2KJgpljq-5">
          <mxGeometry relative="1" as="geometry" />
        </mxCell>
        <mxCell id="BPZOe5Mcxmma2KJgpljq-4" value="填充详情数据" style="rounded=1;whiteSpace=wrap;html=1;fillColor=#dae8fc;strokeColor=#6c8ebf;" vertex="1" parent="1">
          <mxGeometry x="88" y="777" width="120" height="60" as="geometry" />
        </mxCell>
        <mxCell id="BPZOe5Mcxmma2KJgpljq-10" value="" style="edgeStyle=orthogonalEdgeStyle;rounded=0;orthogonalLoop=1;jettySize=auto;html=1;" edge="1" parent="1" source="BPZOe5Mcxmma2KJgpljq-5" target="BPZOe5Mcxmma2KJgpljq-9">
          <mxGeometry relative="1" as="geometry" />
        </mxCell>
        <mxCell id="BPZOe5Mcxmma2KJgpljq-5" value="填充policyResponse的基本信息" style="whiteSpace=wrap;html=1;rounded=1;fillColor=#ffe6cc;strokeColor=#d79b00;" vertex="1" parent="1">
          <mxGeometry x="245" y="777" width="178" height="59" as="geometry" />
        </mxCell>
        <mxCell id="BPZOe5Mcxmma2KJgpljq-17" value="" style="edgeStyle=orthogonalEdgeStyle;rounded=0;orthogonalLoop=1;jettySize=auto;html=1;" edge="1" parent="1" source="BPZOe5Mcxmma2KJgpljq-9" target="BPZOe5Mcxmma2KJgpljq-16">
          <mxGeometry relative="1" as="geometry" />
        </mxCell>
        <mxCell id="BPZOe5Mcxmma2KJgpljq-9" value="SubPolicyResponse分数排序" style="whiteSpace=wrap;html=1;rounded=1;fillColor=#fff2cc;strokeColor=#d6b656;" vertex="1" parent="1">
          <mxGeometry x="456" y="777" width="160" height="60.5" as="geometry" />
        </mxCell>
        <mxCell id="BPZOe5Mcxmma2KJgpljq-15" style="edgeStyle=orthogonalEdgeStyle;rounded=0;orthogonalLoop=1;jettySize=auto;html=1;exitX=1;exitY=0.5;exitDx=0;exitDy=0;" edge="1" parent="1" source="BPZOe5Mcxmma2KJgpljq-13" target="BPZOe5Mcxmma2KJgpljq-4">
          <mxGeometry relative="1" as="geometry" />
        </mxCell>
        <mxCell id="BPZOe5Mcxmma2KJgpljq-13" value="IRiskResponse" style="whiteSpace=wrap;html=1;rounded=1;fillColor=#f5f5f5;fontColor=#333333;strokeColor=#666666;" vertex="1" parent="1">
          <mxGeometry x="-75" y="777.5" width="120" height="60" as="geometry" />
        </mxCell>
        <mxCell id="BPZOe5Mcxmma2KJgpljq-19" value="" style="edgeStyle=orthogonalEdgeStyle;rounded=0;orthogonalLoop=1;jettySize=auto;html=1;" edge="1" parent="1" source="BPZOe5Mcxmma2KJgpljq-16" target="BPZOe5Mcxmma2KJgpljq-18">
          <mxGeometry relative="1" as="geometry" />
        </mxCell>
        <mxCell id="BPZOe5Mcxmma2KJgpljq-16" value="填充SubPolicyResult" style="whiteSpace=wrap;html=1;rounded=1;fillColor=#f8cecc;strokeColor=#b85450;" vertex="1" parent="1">
          <mxGeometry x="649" y="777.5" width="120" height="60" as="geometry" />
        </mxCell>
        <mxCell id="BPZOe5Mcxmma2KJgpljq-18" value="填充IHitRule" style="whiteSpace=wrap;html=1;rounded=1;fillColor=#e1d5e7;strokeColor=#9673a6;" vertex="1" parent="1">
          <mxGeometry x="800" y="777.5" width="120" height="60" as="geometry" />
        </mxCell>
        <mxCell id="BPZOe5Mcxmma2KJgpljq-22" value="" style="edgeStyle=orthogonalEdgeStyle;rounded=0;orthogonalLoop=1;jettySize=auto;html=1;" edge="1" parent="1" source="BPZOe5Mcxmma2KJgpljq-20" target="BPZOe5Mcxmma2KJgpljq-21">
          <mxGeometry relative="1" as="geometry" />
        </mxCell>
        <mxCell id="BPZOe5Mcxmma2KJgpljq-20" value="RuleDeatilOutputStep" style="rounded=1;whiteSpace=wrap;html=1;fillColor=#d5e8d4;strokeColor=#82b366;" vertex="1" parent="1">
          <mxGeometry x="-75" y="891" width="145" height="60" as="geometry" />
        </mxCell>
        <mxCell id="BPZOe5Mcxmma2KJgpljq-21" value="CSRuleDetailOutputExt" style="whiteSpace=wrap;html=1;fillColor=#fff2cc;strokeColor=#d6b656;rounded=1;" vertex="1" parent="1">
          <mxGeometry x="162.5" y="891" width="154.5" height="59" as="geometry" />
        </mxCell>
        <mxCell id="BPZOe5Mcxmma2KJgpljq-25" value="" style="edgeStyle=orthogonalEdgeStyle;rounded=0;orthogonalLoop=1;jettySize=auto;html=1;" edge="1" parent="1" source="BPZOe5Mcxmma2KJgpljq-23" target="BPZOe5Mcxmma2KJgpljq-24">
          <mxGeometry relative="1" as="geometry" />
        </mxCell>
        <mxCell id="BPZOe5Mcxmma2KJgpljq-23" value="RuleDetailList" style="rounded=1;whiteSpace=wrap;html=1;fillColor=#fff2cc;strokeColor=#d6b656;" vertex="1" parent="1">
          <mxGeometry x="-73" y="1074" width="120" height="60" as="geometry" />
        </mxCell>
        <mxCell id="BPZOe5Mcxmma2KJgpljq-27" value="" style="edgeStyle=orthogonalEdgeStyle;rounded=0;orthogonalLoop=1;jettySize=auto;html=1;" edge="1" parent="1" source="BPZOe5Mcxmma2KJgpljq-24" target="BPZOe5Mcxmma2KJgpljq-26">
          <mxGeometry relative="1" as="geometry" />
        </mxCell>
        <mxCell id="BPZOe5Mcxmma2KJgpljq-24" value="规则详情的处理" style="whiteSpace=wrap;html=1;rounded=1;fillColor=#f8cecc;strokeColor=#b85450;" vertex="1" parent="1">
          <mxGeometry x="127" y="1074" width="120" height="60" as="geometry" />
        </mxCell>
        <mxCell id="BPZOe5Mcxmma2KJgpljq-26" value="保存至TryResponse" style="whiteSpace=wrap;html=1;rounded=1;fillColor=#e1d5e7;strokeColor=#9673a6;" vertex="1" parent="1">
          <mxGeometry x="327" y="1074" width="120" height="60" as="geometry" />
        </mxCell>
        <mxCell id="BPZOe5Mcxmma2KJgpljq-30" value="" style="edgeStyle=orthogonalEdgeStyle;rounded=0;orthogonalLoop=1;jettySize=auto;html=1;" edge="1" parent="1" source="BPZOe5Mcxmma2KJgpljq-28" target="BPZOe5Mcxmma2KJgpljq-29">
          <mxGeometry relative="1" as="geometry" />
        </mxCell>
        <mxCell id="BPZOe5Mcxmma2KJgpljq-28" value="&lt;span style=&quot;color: rgb(50 , 50 , 50) ; font-size: 13px ; background-color: rgba(255 , 255 , 255 , 0.01)&quot;&gt;DirectSendKafkaStep&lt;/span&gt;" style="rounded=1;whiteSpace=wrap;html=1;fillColor=#f5f5f5;fontColor=#333333;strokeColor=#666666;" vertex="1" parent="1">
          <mxGeometry x="-75" y="1231" width="155" height="60" as="geometry" />
        </mxCell>
        <mxCell id="BPZOe5Mcxmma2KJgpljq-32" value="" style="edgeStyle=orthogonalEdgeStyle;rounded=0;orthogonalLoop=1;jettySize=auto;html=1;" edge="1" parent="1" source="BPZOe5Mcxmma2KJgpljq-29" target="BPZOe5Mcxmma2KJgpljq-31">
          <mxGeometry relative="1" as="geometry" />
        </mxCell>
        <mxCell id="BPZOe5Mcxmma2KJgpljq-29" value="&lt;meta charset=&quot;utf-8&quot;&gt;&lt;span style=&quot;color: rgb(50, 50, 50); font-size: 13px; font-style: normal; font-weight: 400; letter-spacing: normal; text-align: center; text-indent: 0px; text-transform: none; word-spacing: 0px; background-color: rgba(255, 255, 255, 0.01); display: inline; float: none;&quot;&gt;CsSendKafkaExt&lt;/span&gt;" style="whiteSpace=wrap;html=1;rounded=1;fillColor=#dae8fc;strokeColor=#6c8ebf;" vertex="1" parent="1">
          <mxGeometry x="139" y="1231" width="120" height="60" as="geometry" />
        </mxCell>
        <mxCell id="BPZOe5Mcxmma2KJgpljq-34" value="" style="edgeStyle=orthogonalEdgeStyle;rounded=0;orthogonalLoop=1;jettySize=auto;html=1;" edge="1" parent="1" source="BPZOe5Mcxmma2KJgpljq-31" target="BPZOe5Mcxmma2KJgpljq-33">
          <mxGeometry relative="1" as="geometry" />
        </mxCell>
        <mxCell id="BPZOe5Mcxmma2KJgpljq-31" value="&lt;span style=&quot;color: rgb(50 , 50 , 50) ; font-size: 13px ; background-color: rgba(255 , 255 , 255 , 0.01)&quot;&gt;CsActivityStoreKafkaWorker&lt;/span&gt;" style="whiteSpace=wrap;html=1;rounded=1;fillColor=#d5e8d4;strokeColor=#82b366;" vertex="1" parent="1">
          <mxGeometry x="317" y="1231" width="182" height="60" as="geometry" />
        </mxCell>
        <mxCell id="BPZOe5Mcxmma2KJgpljq-36" value="" style="edgeStyle=orthogonalEdgeStyle;rounded=0;orthogonalLoop=1;jettySize=auto;html=1;" edge="1" parent="1" source="BPZOe5Mcxmma2KJgpljq-33" target="BPZOe5Mcxmma2KJgpljq-35">
          <mxGeometry relative="1" as="geometry" />
        </mxCell>
        <mxCell id="BPZOe5Mcxmma2KJgpljq-33" value="CsGenerateActivityExt" style="whiteSpace=wrap;html=1;rounded=1;fillColor=#ffe6cc;strokeColor=#d79b00;" vertex="1" parent="1">
          <mxGeometry x="546" y="1231" width="144" height="60" as="geometry" />
        </mxCell>
        <mxCell id="BPZOe5Mcxmma2KJgpljq-35" value="RiskResultService" style="whiteSpace=wrap;html=1;rounded=1;fillColor=#fff2cc;strokeColor=#d6b656;" vertex="1" parent="1">
          <mxGeometry x="747" y="1231" width="120" height="60" as="geometry" />
        </mxCell>
        <mxCell id="BPZOe5Mcxmma2KJgpljq-37" value="组装Kafka" style="text;html=1;strokeColor=#d6b656;fillColor=#fff2cc;align=center;verticalAlign=middle;whiteSpace=wrap;rounded=0;" vertex="1" parent="1">
          <mxGeometry x="747" y="1309" width="124" height="30" as="geometry" />
        </mxCell>
        <mxCell id="BPZOe5Mcxmma2KJgpljq-39" value="发送Kafka" style="text;html=1;strokeColor=#82b366;fillColor=#d5e8d4;align=center;verticalAlign=middle;whiteSpace=wrap;rounded=0;" vertex="1" parent="1">
          <mxGeometry x="317" y="1306" width="178" height="32" as="geometry" />
        </mxCell>
        <mxCell id="BPZOe5Mcxmma2KJgpljq-45" style="edgeStyle=orthogonalEdgeStyle;rounded=0;orthogonalLoop=1;jettySize=auto;html=1;exitX=0.5;exitY=1;exitDx=0;exitDy=0;" edge="1" parent="1" source="BPZOe5Mcxmma2KJgpljq-41" target="BPZOe5Mcxmma2KJgpljq-43">
          <mxGeometry relative="1" as="geometry" />
        </mxCell>
        <mxCell id="BPZOe5Mcxmma2KJgpljq-52" value="&lt;b&gt;正式规则&lt;/b&gt;" style="edgeLabel;html=1;align=center;verticalAlign=middle;resizable=0;points=[];" vertex="1" connectable="0" parent="BPZOe5Mcxmma2KJgpljq-45">
          <mxGeometry x="0.2643" y="-1" relative="1" as="geometry">
            <mxPoint as="offset" />
          </mxGeometry>
        </mxCell>
        <mxCell id="BPZOe5Mcxmma2KJgpljq-46" style="edgeStyle=orthogonalEdgeStyle;rounded=0;orthogonalLoop=1;jettySize=auto;html=1;exitX=0.5;exitY=1;exitDx=0;exitDy=0;" edge="1" parent="1" source="BPZOe5Mcxmma2KJgpljq-41" target="BPZOe5Mcxmma2KJgpljq-44">
          <mxGeometry relative="1" as="geometry" />
        </mxCell>
        <mxCell id="BPZOe5Mcxmma2KJgpljq-53" value="&lt;b&gt;正式+试运行规则&lt;/b&gt;" style="edgeLabel;html=1;align=center;verticalAlign=middle;resizable=0;points=[];" vertex="1" connectable="0" parent="BPZOe5Mcxmma2KJgpljq-46">
          <mxGeometry x="0.1865" y="4" relative="1" as="geometry">
            <mxPoint as="offset" />
          </mxGeometry>
        </mxCell>
        <mxCell id="BPZOe5Mcxmma2KJgpljq-41" value="API" style="rounded=1;whiteSpace=wrap;html=1;fillColor=#dae8fc;strokeColor=#6c8ebf;" vertex="1" parent="1">
          <mxGeometry x="282" y="1461" width="120" height="60" as="geometry" />
        </mxCell>
        <mxCell id="BPZOe5Mcxmma2KJgpljq-43" value="Topic" style="ellipse;whiteSpace=wrap;html=1;fillColor=#ffe6cc;strokeColor=#d79b00;" vertex="1" parent="1">
          <mxGeometry x="19" y="1568" width="99" height="68" as="geometry" />
        </mxCell>
        <mxCell id="BPZOe5Mcxmma2KJgpljq-44" value="TryTopic" style="ellipse;whiteSpace=wrap;html=1;fillColor=#ffe6cc;strokeColor=#d79b00;" vertex="1" parent="1">
          <mxGeometry x="555" y="1568" width="99" height="68" as="geometry" />
        </mxCell>
        <mxCell id="BPZOe5Mcxmma2KJgpljq-51" style="edgeStyle=orthogonalEdgeStyle;rounded=0;orthogonalLoop=1;jettySize=auto;html=1;exitX=0.5;exitY=0;exitDx=0;exitDy=0;entryX=0.5;entryY=1;entryDx=0;entryDy=0;" edge="1" parent="1" source="BPZOe5Mcxmma2KJgpljq-47" target="BPZOe5Mcxmma2KJgpljq-43">
          <mxGeometry relative="1" as="geometry" />
        </mxCell>
        <mxCell id="BPZOe5Mcxmma2KJgpljq-58" value="" style="edgeStyle=orthogonalEdgeStyle;rounded=0;orthogonalLoop=1;jettySize=auto;html=1;" edge="1" parent="1" source="BPZOe5Mcxmma2KJgpljq-47" target="BPZOe5Mcxmma2KJgpljq-57">
          <mxGeometry relative="1" as="geometry" />
        </mxCell>
        <mxCell id="BPZOe5Mcxmma2KJgpljq-60" style="edgeStyle=orthogonalEdgeStyle;rounded=0;orthogonalLoop=1;jettySize=auto;html=1;exitX=0.5;exitY=1;exitDx=0;exitDy=0;" edge="1" parent="1" source="BPZOe5Mcxmma2KJgpljq-47" target="BPZOe5Mcxmma2KJgpljq-59">
          <mxGeometry relative="1" as="geometry" />
        </mxCell>
        <mxCell id="BPZOe5Mcxmma2KJgpljq-47" value="ES" style="rounded=1;whiteSpace=wrap;html=1;fillColor=#e1d5e7;strokeColor=#9673a6;" vertex="1" parent="1">
          <mxGeometry x="130" y="1704" width="120" height="52" as="geometry" />
        </mxCell>
        <mxCell id="BPZOe5Mcxmma2KJgpljq-49" style="edgeStyle=orthogonalEdgeStyle;rounded=0;orthogonalLoop=1;jettySize=auto;html=1;exitX=0.5;exitY=0;exitDx=0;exitDy=0;" edge="1" parent="1" source="BPZOe5Mcxmma2KJgpljq-48" target="BPZOe5Mcxmma2KJgpljq-44">
          <mxGeometry relative="1" as="geometry" />
        </mxCell>
        <mxCell id="BPZOe5Mcxmma2KJgpljq-55" value="消费" style="edgeLabel;html=1;align=center;verticalAlign=middle;resizable=0;points=[];" vertex="1" connectable="0" parent="BPZOe5Mcxmma2KJgpljq-49">
          <mxGeometry x="0.0068" y="-2" relative="1" as="geometry">
            <mxPoint as="offset" />
          </mxGeometry>
        </mxCell>
        <mxCell id="BPZOe5Mcxmma2KJgpljq-50" style="edgeStyle=orthogonalEdgeStyle;rounded=0;orthogonalLoop=1;jettySize=auto;html=1;exitX=0.5;exitY=0;exitDx=0;exitDy=0;entryX=0.5;entryY=1;entryDx=0;entryDy=0;" edge="1" parent="1" source="BPZOe5Mcxmma2KJgpljq-48" target="BPZOe5Mcxmma2KJgpljq-43">
          <mxGeometry relative="1" as="geometry" />
        </mxCell>
        <mxCell id="BPZOe5Mcxmma2KJgpljq-54" value="消费" style="edgeLabel;html=1;align=center;verticalAlign=middle;resizable=0;points=[];" vertex="1" connectable="0" parent="BPZOe5Mcxmma2KJgpljq-50">
          <mxGeometry x="0.6001" y="1" relative="1" as="geometry">
            <mxPoint as="offset" />
          </mxGeometry>
        </mxCell>
        <mxCell id="BPZOe5Mcxmma2KJgpljq-63" style="edgeStyle=orthogonalEdgeStyle;rounded=0;orthogonalLoop=1;jettySize=auto;html=1;exitX=0.5;exitY=1;exitDx=0;exitDy=0;" edge="1" parent="1" source="BPZOe5Mcxmma2KJgpljq-48" target="BPZOe5Mcxmma2KJgpljq-61">
          <mxGeometry relative="1" as="geometry" />
        </mxCell>
        <mxCell id="BPZOe5Mcxmma2KJgpljq-64" style="edgeStyle=orthogonalEdgeStyle;rounded=0;orthogonalLoop=1;jettySize=auto;html=1;exitX=0.5;exitY=1;exitDx=0;exitDy=0;" edge="1" parent="1" source="BPZOe5Mcxmma2KJgpljq-48" target="BPZOe5Mcxmma2KJgpljq-62">
          <mxGeometry relative="1" as="geometry" />
        </mxCell>
        <mxCell id="BPZOe5Mcxmma2KJgpljq-48" value="HBase" style="rounded=1;whiteSpace=wrap;html=1;fillColor=#f8cecc;strokeColor=#b85450;" vertex="1" parent="1">
          <mxGeometry x="444" y="1704" width="120" height="60" as="geometry" />
        </mxCell>
        <mxCell id="BPZOe5Mcxmma2KJgpljq-57" value="正式规则的ES" style="whiteSpace=wrap;html=1;rounded=1;fillColor=#e1d5e7;strokeColor=#9673a6;" vertex="1" parent="1">
          <mxGeometry x="49" y="1820" width="120" height="48" as="geometry" />
        </mxCell>
        <mxCell id="BPZOe5Mcxmma2KJgpljq-59" value="正式+试运行规则的ES" style="whiteSpace=wrap;html=1;rounded=1;fillColor=#e1d5e7;strokeColor=#9673a6;" vertex="1" parent="1">
          <mxGeometry x="193" y="1820" width="163" height="48" as="geometry" />
        </mxCell>
        <mxCell id="BPZOe5Mcxmma2KJgpljq-80" style="edgeStyle=orthogonalEdgeStyle;rounded=0;orthogonalLoop=1;jettySize=auto;html=1;exitX=1;exitY=0.5;exitDx=0;exitDy=0;strokeColor=#000000;startArrow=classic;startFill=1;fillColor=#b1ddf0;endArrow=none;endFill=0;" edge="1" parent="1" source="BPZOe5Mcxmma2KJgpljq-61">
          <mxGeometry relative="1" as="geometry">
            <mxPoint x="541" y="1919" as="targetPoint" />
            <Array as="points">
              <mxPoint x="540" y="1844" />
              <mxPoint x="540" y="1919" />
            </Array>
          </mxGeometry>
        </mxCell>
        <mxCell id="BPZOe5Mcxmma2KJgpljq-61" value="正式规则的HBase" style="whiteSpace=wrap;html=1;rounded=1;fillColor=#f8cecc;strokeColor=#b85450;" vertex="1" parent="1">
          <mxGeometry x="373" y="1820" width="120" height="48" as="geometry" />
        </mxCell>
        <mxCell id="BPZOe5Mcxmma2KJgpljq-62" value="正式+试运行规则的HBase" style="whiteSpace=wrap;html=1;rounded=1;fillColor=#f8cecc;strokeColor=#b85450;" vertex="1" parent="1">
          <mxGeometry x="545" y="1820" width="163" height="52" as="geometry" />
        </mxCell>
        <mxCell id="BPZOe5Mcxmma2KJgpljq-66" style="edgeStyle=orthogonalEdgeStyle;rounded=0;orthogonalLoop=1;jettySize=auto;html=1;exitX=0.5;exitY=0;exitDx=0;exitDy=0;" edge="1" parent="1" source="BPZOe5Mcxmma2KJgpljq-65" target="BPZOe5Mcxmma2KJgpljq-57">
          <mxGeometry relative="1" as="geometry" />
        </mxCell>
        <mxCell id="BPZOe5Mcxmma2KJgpljq-70" value="正常查询详情" style="edgeLabel;html=1;align=center;verticalAlign=middle;resizable=0;points=[];" vertex="1" connectable="0" parent="BPZOe5Mcxmma2KJgpljq-66">
          <mxGeometry x="0.8122" y="-2" relative="1" as="geometry">
            <mxPoint as="offset" />
          </mxGeometry>
        </mxCell>
        <mxCell id="BPZOe5Mcxmma2KJgpljq-71" style="edgeStyle=orthogonalEdgeStyle;rounded=0;orthogonalLoop=1;jettySize=auto;html=1;exitX=0.5;exitY=0;exitDx=0;exitDy=0;" edge="1" parent="1" source="BPZOe5Mcxmma2KJgpljq-65" target="BPZOe5Mcxmma2KJgpljq-59">
          <mxGeometry relative="1" as="geometry" />
        </mxCell>
        <mxCell id="BPZOe5Mcxmma2KJgpljq-72" value="勾选试运行选项" style="edgeLabel;html=1;align=center;verticalAlign=middle;resizable=0;points=[];" vertex="1" connectable="0" parent="BPZOe5Mcxmma2KJgpljq-71">
          <mxGeometry x="0.6877" y="-1" relative="1" as="geometry">
            <mxPoint x="1" y="1" as="offset" />
          </mxGeometry>
        </mxCell>
        <mxCell id="BPZOe5Mcxmma2KJgpljq-73" style="edgeStyle=orthogonalEdgeStyle;rounded=0;orthogonalLoop=1;jettySize=auto;html=1;exitX=0.5;exitY=0;exitDx=0;exitDy=0;" edge="1" parent="1" source="BPZOe5Mcxmma2KJgpljq-65" target="BPZOe5Mcxmma2KJgpljq-61">
          <mxGeometry relative="1" as="geometry" />
        </mxCell>
        <mxCell id="BPZOe5Mcxmma2KJgpljq-75" value="正常查询HBase" style="edgeLabel;html=1;align=center;verticalAlign=middle;resizable=0;points=[];" vertex="1" connectable="0" parent="BPZOe5Mcxmma2KJgpljq-73">
          <mxGeometry x="0.6807" y="1" relative="1" as="geometry">
            <mxPoint x="1" as="offset" />
          </mxGeometry>
        </mxCell>
        <mxCell id="BPZOe5Mcxmma2KJgpljq-74" style="edgeStyle=orthogonalEdgeStyle;rounded=0;orthogonalLoop=1;jettySize=auto;html=1;exitX=0.5;exitY=0;exitDx=0;exitDy=0;" edge="1" parent="1" source="BPZOe5Mcxmma2KJgpljq-65" target="BPZOe5Mcxmma2KJgpljq-62">
          <mxGeometry relative="1" as="geometry">
            <Array as="points">
              <mxPoint x="370" y="1920" />
              <mxPoint x="627" y="1920" />
            </Array>
          </mxGeometry>
        </mxCell>
        <mxCell id="BPZOe5Mcxmma2KJgpljq-78" value="勾选试运行选项" style="edgeLabel;html=1;align=center;verticalAlign=middle;resizable=0;points=[];" vertex="1" connectable="0" parent="BPZOe5Mcxmma2KJgpljq-74">
          <mxGeometry x="-0.0646" y="1" relative="1" as="geometry">
            <mxPoint x="3" y="-1" as="offset" />
          </mxGeometry>
        </mxCell>
        <mxCell id="BPZOe5Mcxmma2KJgpljq-65" value="kunpeng-cs-admin" style="rounded=1;whiteSpace=wrap;html=1;fillColor=#b1ddf0;strokeColor=#10739e;" vertex="1" parent="1">
          <mxGeometry x="310" y="1971" width="120" height="60" as="geometry" />
        </mxCell>
      </root>
    </mxGraphModel>
  </diagram>
  <diagram id="6BvByMa-VHmdal31lAUf" name="Page-2">
    <mxGraphModel dx="946" dy="525" grid="1" gridSize="10" guides="1" tooltips="1" connect="1" arrows="1" fold="1" page="1" pageScale="1" pageWidth="827" pageHeight="1169" math="0" shadow="0">
      <root>
        <mxCell id="0" />
        <mxCell id="1" parent="0" />
      </root>
    </mxGraphModel>
  </diagram>
</mxfile>
